# xmcd
#
# Track frame offsets:
# 150
# 17928
# 33342
# 55960
# 71350
# 86893
# 107166
# 126712
# 148165
# 167540
# 187763
# 207773
# 223091
# 248729
#
# Disc length: 4421 seconds
#
#
# Revision: 0
# Processed by: cddbd v1.5.2PL0 Copyright (c) Steve Scherf et al.
# Submitted via: FreeRIP 2.60 
#
DISCID=cf11430e
DTITLE=SHeDAISY - Knock On The Sky
DYEAR=2002
DGENRE=Country
TTITLE0=Mine All Mine
TTITLE1=I'm Lit
TTITLE2=Man Goin Down
TTITLE3=Get Over Yourself
TTITLE4=Rush
TTITLE5=I Wish I Were The Rain
TTITLE6=Repent
TTITLE7=Everybody Wants YOu
TTITLE8=Now
TTITLE9=All Over You
TTITLE10=The First To Let Go
TTITLE11=Turn Me On
TTITLE12=Help Me!
TTITLE13=Hidden Track
EXTD=
EXTT0=
EXTT1=
EXTT2=
EXTT3=
EXTT4=
EXTT5=
EXTT6=
EXTT7=
EXTT8=
EXTT9=
EXTT10=
EXTT11=
EXTT12=
EXTT13=
PLAYORDER=
